# xmcd
#
# Track frame offsets:
#	150
#	17650
#	39250
#	60275
#	75107
#	93442
#	110577
#	129357
#	146692
#	162885
#	181587
#	196985
#	216312
#	233905
#	250175
#
# Disc length: 3559 seconds
#
# Revision: 1
# Processed by: cddbd v1.5.1PL0 Copyright (c) Steve Scherf et al.
# Submitted via: CDex 1.50Beta5
#
DISCID=b60de50f
DTITLE=Various Artist - オール・ニューミュージック・ヒット・コレクション60
DYEAR=1900
DGENRE=
TTITLE0=堀江淳/メモリーグラス
TTITLE1=五十嵐浩晃/ディープパープル
TTITLE2=村下孝蔵/春雨
TTITLE3=南佳孝/スローなブギにしてくれ
TTITLE4=五十嵐浩晃/ペガサスの朝
TTITLE5=須藤薫/FOOLISH(渚のポストマン)
TTITLE6=五輪真弓/恋人よ
TTITLE7=渡辺真知子/ホールドミータイト
TTITLE8=五十嵐浩晃/愛は風まかせ
TTITLE9=岸田智史/重いつばさ
TTITLE10=太田裕美/南風-SOUTH WIND-
TTITLE11=南佳孝/憧れのラジオガール
TTITLE12=渡辺真知子/唇よ、熱く君を語れ
TTITLE13=五輪真弓/合鍵
TTITLE14=久保田早紀/異邦人
EXTD=
EXTT0=
EXTT1=
EXTT2=
EXTT3=
EXTT4=
EXTT5=
EXTT6=
EXTT7=
EXTT8=
EXTT9=
EXTT10=
EXTT11=
EXTT12=
EXTT13=
EXTT14=
PLAYORDER=
